<svg xmlns="http://www.w3.org/2000/svg" width="64" height="80" viewBox="0 0 64 80" shape-rendering="crispEdges">
  <!-- Balloon — richer 16-bit placeholder -->
  <rect x="22" y="2" width="20" height="3" fill="#f0a090"/>
  <rect x="16" y="5" width="32" height="4" fill="#e87a6a"/>
  <rect x="12" y="9" width="40" height="6" fill="#f0a090"/>
  <rect x="10" y="15" width="44" height="8" fill="#e87a6a"/>
  <rect x="10" y="23" width="44" height="8" fill="#c94f45"/>
  <rect x="12" y="31" width="40" height="6" fill="#e87a6a"/>
  <rect x="16" y="37" width="32" height="4" fill="#f0a090"/>
  <rect x="22" y="41" width="20" height="3" fill="#c94f45"/>
  <!-- stripes -->
  <rect x="20" y="9" width="4" height="28" fill="#ffe08a"/>
  <rect x="30" y="9" width="4" height="28" fill="#7ec8ff"/>
  <rect x="40" y="9" width="4" height="28" fill="#ffe08a"/>
  <!-- shine -->
  <rect x="14" y="12" width="4" height="10" fill="#ffd2cb"/>
  <!-- ropes -->
  <rect x="24" y="44" width="2" height="10" fill="#6b5344"/>
  <rect x="38" y="44" width="2" height="10" fill="#6b5344"/>
  <rect x="24" y="52" width="16" height="2" fill="#6b5344"/>
  <!-- basket -->
  <rect x="22" y="54" width="20" height="12" fill="#d2a679"/>
  <rect x="22" y="58" width="20" height="3" fill="#b88855"/>
  <rect x="22" y="63" width="20" height="3" fill="#8a6b3f"/>
  <rect x="25" y="56" width="3" height="3" fill="#5c4030"/>
  <rect x="36" y="56" width="3" height="3" fill="#5c4030"/>
  <rect x="28" y="66" width="8" height="2" fill="#6b5344"/>
</svg>
